#N canvas 0 23 450 300 12;
#X obj 146 90 phasor~ 1000;
#X obj 146 114 *~ 0.01;
#X obj 146 138 *~;
#X obj 250 91 osc~ 0.5;
#X obj 250 115 *~ 0.5;
#X obj 250 139 +~ 0.5;
#X obj 146 162 hip~ 5;
#X obj 146 186 dac~;
#X connect 0 0 1 0;
#X connect 1 0 2 0;
#X connect 2 0 6 0;
#X connect 3 0 4 0;
#X connect 4 0 5 0;
#X connect 5 0 2 1;
#X connect 6 0 7 0;
#X connect 6 0 7 1;
